<svg width="48" height="48" viewBox="0 0 48 48" fill="none" xmlns="http://www.w3.org/2000/svg" xmlns:xlink="http://www.w3.org/1999/xlink">
<path d="M11.5,30C11.5,23.096 17.096,17.5 24,17.5L24,14.5C15.44,14.5 8.5,21.44 8.5,30L11.5,30ZM24,17.5C30.904,17.5 36.5,23.096 36.5,30L39.5,30C39.5,21.44 32.56,14.5 24,14.5L24,17.5ZM36.5,30C36.5,36.904 30.904,42.5 24,42.5L24,45.5C32.56,45.5 39.5,38.56 39.5,30L36.5,30ZM24,42.5C17.096,42.5 11.5,36.904 11.5,30L8.5,30C8.5,38.56 15.44,45.5 24,45.5L24,42.5Z" fill="#ABABAB"/>
<path d="M31.5,19C31.5,19.828 32.172,20.5 33,20.5C33.828,20.5 34.5,19.828 34.5,19L31.5,19ZM13.5,19C13.5,19.828 14.172,20.5 15,20.5C15.828,20.5 16.5,19.828 16.5,19L13.5,19ZM34.5,19L34.5,13L31.5,13L31.5,19L34.5,19ZM34.5,13C34.5,7.201 29.799,2.5 24,2.5L24,5.5C28.142,5.5 31.5,8.858 31.5,13L34.5,13ZM24,2.5C18.201,2.5 13.5,7.201 13.5,13L16.5,13C16.5,8.858 19.858,5.5 24,5.5L24,2.5ZM13.5,13L13.5,19L16.5,19L16.5,13L13.5,13Z" fill="#ABABAB"/>
<line x1="24" y1="28" x2="24.018" y2="28" stroke="#ABABAB" stroke-width="2" stroke-miterlimit="3.999327" stroke-linecap="round" stroke-linejoin="round"/>
</svg>
