<svg width="36" height="36" viewBox="0 0 36 36" fill="none" xmlns="http://www.w3.org/2000/svg" xmlns:xlink="http://www.w3.org/1999/xlink">
<path d="M21.111,5.828L20.008,4.811L20.008,4.811L21.111,5.828ZM23.381,3.658L22.614,2.369L22.614,2.369L23.381,3.658ZM28.036,3.588L28.764,2.277L28.764,2.277L28.036,3.588ZM32.424,8.071L31.1,8.776L31.1,8.776L32.424,8.071ZM32.355,12.826L31.052,12.083L31.052,12.083L32.355,12.826ZM30.231,15.146L31.272,16.226L31.272,16.226L30.231,15.146ZM16.126,28.731L15.085,27.651L15.085,27.651L16.126,28.731ZM11.352,32.526L10.806,31.128L10.806,31.128L11.352,32.526ZM5.318,32.953L5.357,31.453L5.357,31.453L5.318,32.953ZM4.898,32.942L4.859,34.441L4.859,34.441L4.898,32.942ZM3.215,32.595L4.341,31.603L4.341,31.603L3.215,32.595ZM3.054,30.849L1.559,30.733L1.559,30.733L3.054,30.849ZM3.095,30.33L4.59,30.446L4.59,30.446L3.095,30.33ZM3.936,25.077L5.311,25.675L5.311,25.675L3.936,25.077ZM7.184,20.917L6.082,19.899L6.082,19.899L7.184,20.917ZM22.213,6.846C23.404,5.555 23.789,5.161 24.148,4.948L22.614,2.369C21.785,2.862 21.052,3.68 20.008,4.811L22.213,6.846ZM24.148,4.948C25.122,4.368 26.318,4.35 27.308,4.9L28.764,2.277C26.84,1.209 24.506,1.244 22.614,2.369L24.148,4.948ZM27.307,4.9C27.672,5.102 28.067,5.484 29.296,6.738L31.439,4.64C30.364,3.541 29.607,2.745 28.764,2.277L27.307,4.9ZM29.296,6.738C30.522,7.991 30.898,8.398 31.1,8.776L33.748,7.367C33.293,6.511 32.517,5.741 31.439,4.64L29.296,6.738ZM31.1,8.776C31.65,9.81 31.632,11.067 31.052,12.083L33.659,13.569C34.748,11.658 34.781,9.309 33.748,7.367L31.1,8.776ZM31.052,12.083C30.84,12.455 30.453,12.85 29.191,14.065L31.272,16.226C32.381,15.158 33.179,14.411 33.659,13.569L31.052,12.083ZM29.191,14.065L15.085,27.651L17.166,29.812L31.272,16.226L29.191,14.065ZM15.085,27.651C12.749,29.901 11.866,30.715 10.806,31.128L11.898,33.923C13.646,33.24 15.01,31.889 17.167,29.812L15.085,27.651ZM10.806,31.128C9.75,31.541 8.568,31.537 5.357,31.453L5.279,34.452C8.242,34.53 10.146,34.607 11.898,33.923L10.806,31.128ZM5.357,31.453L4.937,31.442L4.859,34.441L5.279,34.452L5.357,31.453ZM4.937,31.442C4.697,31.436 4.512,31.431 4.356,31.423C4.198,31.415 4.107,31.405 4.054,31.396C4.001,31.387 4.029,31.386 4.093,31.416C4.171,31.452 4.263,31.514 4.341,31.603L2.09,33.587C2.545,34.103 3.116,34.281 3.56,34.355C3.957,34.421 4.433,34.43 4.859,34.441L4.937,31.442ZM4.341,31.603C4.419,31.692 4.466,31.787 4.49,31.861C4.51,31.921 4.505,31.941 4.502,31.881C4.499,31.821 4.499,31.724 4.507,31.561C4.516,31.4 4.531,31.211 4.55,30.966L1.559,30.733C1.525,31.169 1.484,31.646 1.507,32.048C1.531,32.49 1.639,33.075 2.09,33.587L4.341,31.603ZM4.55,30.966L4.59,30.446L1.599,30.213L1.559,30.733L4.55,30.966ZM4.59,30.446C4.808,27.651 4.909,26.602 5.311,25.675L2.56,24.48C1.91,25.974 1.801,27.62 1.599,30.213L4.59,30.446ZM5.311,25.675C5.713,24.751 6.403,23.975 8.286,21.934L6.082,19.899C4.335,21.792 3.21,22.982 2.56,24.48L5.311,25.675ZM8.286,21.934L22.213,6.846L20.008,4.811L6.082,19.899L8.286,21.934Z" fill="#FFFFFF"/>
<path d="M18.439,7.061L28.939,17.561L31.061,15.439L20.561,4.939L18.439,7.061Z" fill="#FFFFFF"/>
<line x1="21" y1="31.5" x2="33" y2="31.5" stroke="#FFFFFF" stroke-width="1.5" stroke-miterlimit="3.999327" stroke-linecap="round" stroke-linejoin="round"/>
</svg>
