<svg width="48" height="48" viewBox="0 0 48 48" fill="none" xmlns="http://www.w3.org/2000/svg" xmlns:xlink="http://www.w3.org/1999/xlink">
<path d="M38,30C36.895,30 36,30.895 36,32L36,36L12,36L12,32C12,30.895 11.105,30 10,30L10,30C8.895,30 8,30.895 8,32L8,36C8,38.2 9.8,40 12,40L36,40C38.2,40 40,38.2 40,36L40,32C40,30.895 39.105,30 38,30L38,30Z" fill="#000000"/>
<path d="M32.589,23.411C33.368,22.632 33.368,21.368 32.589,20.589L32.589,20.589C31.81,19.81 30.549,19.809 29.769,20.586L26,24.34L26,10C26,8.895 25.105,8 24,8L24,8C22.895,8 22,8.895 22,10L22,24.34L18.231,20.586C17.451,19.809 16.19,19.81 15.411,20.589L15.411,20.589C14.632,21.368 14.632,22.632 15.411,23.411L24,32L32.589,23.411Z" fill="#000000"/>
</svg>
