<svg width="78" height="48" viewBox="0 0 78 48" fill="none" xmlns="http://www.w3.org/2000/svg" xmlns:xlink="http://www.w3.org/1999/xlink">
<path d="M38,30C36.895,30 36,30.895 36,32L36,36L12,36L12,32C12,30.895 11.105,30 10,30L10,30C8.895,30 8,30.895 8,32L8,36C8,38.2 9.8,40 12,40L36,40C38.2,40 40,38.2 40,36L40,32C40,30.895 39.105,30 38,30L38,30Z" fill="#000000"/>
<path d="M32.589,23.411C33.368,22.632 33.368,21.368 32.589,20.589L32.589,20.589C31.81,19.81 30.549,19.809 29.769,20.586L26,24.34L26,10C26,8.895 25.105,8 24,8L24,8C22.895,8 22,8.895 22,10L22,24.34L18.231,20.586C17.451,19.809 16.19,19.81 15.411,20.589L15.411,20.589C14.632,21.368 14.632,22.632 15.411,23.411L24,32L32.589,23.411Z" fill="#000000"/>
<path d="M44.375,13.455L41.9,13.455L41.9,12.777C41.9,11.653 41.296,10.741 40.55,10.741L38.75,10.741C38.004,10.741 37.4,11.653 37.4,12.777L37.4,13.455L34.925,13.455C34.304,13.455 33.8,14.214 33.8,15.151L33.8,16.508C33.8,16.883 34.002,17.186 34.25,17.186L45.05,17.186C45.299,17.186 45.5,16.883 45.5,16.508L45.5,15.151C45.5,14.214 44.996,13.455 44.375,13.455ZM38.3,12.777C38.3,12.403 38.502,12.098 38.75,12.098L40.55,12.098C40.798,12.098 41,12.403 41,12.777L41,13.455L38.3,13.455L38.3,12.777Z" transform="rotate(0 39.65 13.964)" fill="#FFFFFF"/>
<path d="M34.602,18.275C34.519,18.275 34.454,18.382 34.458,18.511L34.84,30.983C34.875,32.137 35.484,33.041 36.227,33.041L43.257,33.041C44,33.041 44.609,32.137 44.644,30.983L45.026,18.511C45.03,18.382 44.964,18.275 44.882,18.275L34.602,18.275ZM41.594,20.076C41.594,19.678 41.801,19.355 42.057,19.355C42.312,19.355 42.52,19.678 42.52,20.076L42.52,29.439C42.52,29.837 42.312,30.16 42.057,30.16C41.801,30.16 41.594,29.837 41.594,29.439L41.594,20.076ZM39.279,20.076C39.279,19.678 39.486,19.355 39.742,19.355C39.998,19.355 40.205,19.678 40.205,20.076L40.205,29.439C40.205,29.837 39.998,30.16 39.742,30.16C39.486,30.16 39.279,29.837 39.279,29.439L39.279,20.076ZM36.964,20.076C36.964,19.678 37.171,19.355 37.427,19.355C37.683,19.355 37.89,19.678 37.89,20.076L37.89,29.439C37.89,29.837 37.683,30.16 37.427,30.16C37.171,30.16 36.964,29.837 36.964,29.439L36.964,20.076Z" transform="rotate(0.318 39.742 25.658)" fill="#FFFFFF"/>
</svg>
