<svg width="78" height="48" viewBox="0 0 78 48" fill="none" xmlns="http://www.w3.org/2000/svg" xmlns:xlink="http://www.w3.org/1999/xlink">
<path d="M38,30C36.895,30 36,30.895 36,32L36,36L12,36L12,32C12,30.895 11.105,30 10,30L10,30C8.895,30 8,30.895 8,32L8,36C8,38.2 9.8,40 12,40L36,40C38.2,40 40,38.2 40,36L40,32C40,30.895 39.105,30 38,30L38,30Z" fill="#000000"/>
<path d="M32.589,23.411C33.368,22.632 33.368,21.368 32.589,20.589L32.589,20.589C31.81,19.81 30.549,19.809 29.769,20.586L26,24.34L26,10C26,8.895 25.105,8 24,8L24,8C22.895,8 22,8.895 22,10L22,24.34L18.231,20.586C17.451,19.809 16.19,19.81 15.411,20.589L15.411,20.589C14.632,21.368 14.632,22.632 15.411,23.411L24,32L32.589,23.411Z" fill="#000000"/>
<path d="M43.562,13.161L41.087,13.161L41.087,12.483C41.087,11.359 40.482,10.448 39.737,10.448L37.937,10.448C37.191,10.448 36.587,11.359 36.587,12.483L36.587,13.161L34.112,13.161C33.49,13.161 32.987,13.921 32.987,14.857L32.987,16.214C32.987,16.589 33.188,16.892 33.437,16.892L44.237,16.892C44.485,16.892 44.687,16.589 44.687,16.214L44.687,14.857C44.687,13.921 44.183,13.161 43.562,13.161ZM37.487,12.483C37.487,12.109 37.689,11.804 37.937,11.804L39.737,11.804C39.985,11.804 40.187,12.109 40.187,12.483L40.187,13.161L37.487,13.161L37.487,12.483Z" transform="rotate(0 38.837 13.67)" fill="#FFFFFF"/>
<path d="M33.789,17.981C33.706,17.981 33.64,18.089 33.644,18.217L34.026,30.689C34.061,31.843 34.671,32.747 35.413,32.747L42.444,32.747C43.186,32.747 43.795,31.843 43.831,30.689L44.213,18.217C44.217,18.089 44.151,17.981 44.068,17.981L33.789,17.981ZM40.78,19.782C40.78,19.384 40.987,19.062 41.243,19.062C41.499,19.062 41.706,19.384 41.706,19.782L41.706,29.146C41.706,29.544 41.499,29.866 41.243,29.866C40.987,29.866 40.78,29.544 40.78,29.146L40.78,19.782ZM38.465,19.782C38.465,19.384 38.673,19.062 38.928,19.062C39.184,19.062 39.391,19.384 39.391,19.782L39.391,29.146C39.391,29.544 39.184,29.866 38.928,29.866C38.673,29.866 38.465,29.544 38.465,29.146L38.465,19.782ZM36.151,19.782C36.151,19.384 36.358,19.062 36.614,19.062C36.869,19.062 37.077,19.384 37.077,19.782L37.077,29.146C37.077,29.544 36.869,29.866 36.614,29.866C36.358,29.866 36.151,29.544 36.151,29.146L36.151,19.782Z" transform="rotate(0.318 38.928 25.364)" fill="#FFFFFF"/>
</svg>
