<svg width="36" height="36" viewBox="0 0 36 36" fill="none" xmlns="http://www.w3.org/2000/svg" xmlns:xlink="http://www.w3.org/1999/xlink">
<path d="M18,36C27.847,36 36,27.829 36,18C36,8.153 27.829,0 17.982,0C8.153,0 0,8.153 0,18C0,27.829 8.171,36 18,36ZM11.771,25.694C10.976,25.694 10.324,25.024 10.324,24.212C10.324,23.824 10.482,23.471 10.747,23.188L15.918,18.018L10.747,12.847C10.482,12.565 10.324,12.212 10.324,11.824C10.324,11.012 10.976,10.376 11.771,10.376C12.194,10.376 12.529,10.518 12.794,10.8L17.982,15.971L23.224,10.782C23.524,10.482 23.841,10.341 24.229,10.341C25.024,10.341 25.676,10.994 25.676,11.788C25.676,12.194 25.553,12.512 25.253,12.829L20.065,18.018L25.235,23.171C25.518,23.471 25.659,23.806 25.659,24.212C25.659,25.024 25.006,25.694 24.194,25.694C23.788,25.694 23.435,25.518 23.153,25.253L17.982,20.082L12.847,25.253C12.565,25.535 12.194,25.694 11.771,25.694Z" fill="#3C3C43" fill-opacity="0.6"/>
</svg>
