<svg width="48" height="48" viewBox="0 0 48 48" fill="none" xmlns="http://www.w3.org/2000/svg" xmlns:xlink="http://www.w3.org/1999/xlink">
<path d="M36,22C36,29.732 29.732,36 22,36L22,40C31.941,40 40,31.941 40,22L36,22ZM22,36C14.268,36 8,29.732 8,22L4,22C4,31.941 12.059,40 22,40L22,36ZM8,22C8,14.268 14.268,8 22,8L22,4C12.059,4 4,12.059 4,22L8,22ZM22,8C29.732,8 36,14.268 36,22L40,22C40,12.059 31.941,4 22,4L22,8Z" fill="#000000"/>
<path d="M40.586,43.414C41.367,44.195 42.633,44.195 43.414,43.414C44.195,42.633 44.195,41.367 43.414,40.586L40.586,43.414ZM34.714,31.886C33.933,31.105 32.667,31.105 31.886,31.886C31.105,32.667 31.105,33.933 31.886,34.714L34.714,31.886ZM43.414,40.586L34.714,31.886L31.886,34.714L40.586,43.414L43.414,40.586Z" fill="#000000"/>
</svg>
