<svg width="50" height="50" viewBox="0 0 50 50" fill="none" xmlns="http://www.w3.org/2000/svg" xmlns:xlink="http://www.w3.org/1999/xlink">
<path d="M24.999,8.789C29.656,8.789 32.798,10.801 34.589,12.482L41.588,5.648C37.289,1.652 31.695,-0.8 24.999,-0.8C15.3,-0.8 6.923,4.766 2.845,12.868L10.863,19.095C12.875,13.116 18.441,8.789 24.999,8.789L24.999,8.789Z" fill="#EA4335"/>
<path d="M48.808,24.551C48.808,22.512 48.642,21.024 48.284,19.481L25,19.481L25,28.684L38.667,28.684C38.392,30.972 36.904,34.416 33.597,36.731L41.423,42.793C46.107,38.467 48.808,32.101 48.808,24.551L48.808,24.551Z" fill="#4285F4"/>
<path d="M10.892,28.905C10.368,27.362 10.065,25.708 10.065,24C10.065,22.292 10.368,20.638 10.864,19.095L2.845,12.868C1.164,16.229 0.2,20.004 0.2,24C0.2,27.996 1.164,31.771 2.845,35.132L10.892,28.905L10.892,28.905Z" fill="#FBBC05"/>
<path d="M24.999,48.8C31.695,48.8 37.317,46.596 41.422,42.793L33.597,36.731C31.502,38.191 28.692,39.211 24.999,39.211C18.441,39.211 12.875,34.884 10.891,28.905L2.872,35.132C6.95,43.234 15.3,48.8 24.999,48.8L24.999,48.8Z" fill="#34A853"/>
</svg>
