<svg width="48" height="48" viewBox="0 0 48 48" fill="none" xmlns="http://www.w3.org/2000/svg" xmlns:xlink="http://www.w3.org/1999/xlink">
<path d="M38,42C38,43.105 38.895,44 40,44C41.105,44 42,43.105 42,42L38,42ZM32,30L32,28L32,30ZM16,30L16,28L16,30ZM8,38L6,38L8,38ZM6,42C6,43.105 6.895,44 8,44C9.105,44 10,43.105 10,42L6,42ZM42,42L42,38L38,38L38,42L42,42ZM42,38C42,35.348 40.946,32.804 39.071,30.929L36.243,33.757C37.368,34.883 38,36.409 38,38L42,38ZM39.071,30.929C37.196,29.054 34.652,28 32,28L32,32C33.591,32 35.117,32.632 36.243,33.757L39.071,30.929ZM32,28L16,28L16,32L32,32L32,28ZM16,28C13.348,28 10.804,29.054 8.929,30.929L11.757,33.757C12.883,32.632 14.409,32 16,32L16,28ZM8.929,30.929C7.054,32.804 6,35.348 6,38L10,38C10,36.409 10.632,34.883 11.757,33.757L8.929,30.929ZM6,38L6,42L10,42L10,38L6,38Z" fill="#000000"/>
<path d="M30,16C30,19.314 27.314,22 24,22L24,26C29.523,26 34,21.523 34,16L30,16ZM24,22C20.686,22 18,19.314 18,16L14,16C14,21.523 18.477,26 24,26L24,22ZM18,16C18,12.686 20.686,10 24,10L24,6C18.477,6 14,10.477 14,16L18,16ZM24,10C27.314,10 30,12.686 30,16L34,16C34,10.477 29.523,6 24,6L24,10Z" fill="#000000"/>
</svg>
