<svg width="50" height="32" viewBox="0 0 50 32" fill="none" xmlns="http://www.w3.org/2000/svg" xmlns:xlink="http://www.w3.org/1999/xlink">
<path d="M48.732,20.3L47.309,19.793C47.291,19.701 47.254,19.6 47.208,19.517C45.785,16.815 45.785,14.188 47.208,11.487C47.217,11.478 47.217,11.459 47.226,11.45L48.612,10.961C48.933,10.851 48.924,10.399 48.603,10.298L18.645,0.571L1.005,8.804C1.005,8.804 -2.336,13.681 1.005,21.48L23.354,31.557L48.75,21.37C49.255,21.185 49.236,20.476 48.732,20.3ZM44.454,12.842C43.84,15.036 43.986,17.249 44.895,19.443L23.877,27.685C23.868,27.676 23.868,27.657 23.859,27.648C23.804,27.519 23.748,27.39 23.703,27.261C23.657,27.132 23.611,27.003 23.574,26.874C23.565,26.855 23.556,26.827 23.556,26.809C23.519,26.689 23.482,26.56 23.455,26.44C23.446,26.413 23.446,26.394 23.436,26.366C23.409,26.237 23.381,26.118 23.354,25.988C23.354,25.97 23.345,25.961 23.345,25.942C23.317,25.823 23.299,25.703 23.28,25.583C23.28,25.564 23.271,25.546 23.271,25.537C23.253,25.417 23.244,25.288 23.234,25.168C23.234,25.14 23.234,25.122 23.225,25.094C23.216,24.974 23.207,24.845 23.207,24.725C23.207,24.707 23.207,24.679 23.207,24.661C23.207,24.532 23.207,24.412 23.207,24.283C23.207,24.274 23.207,24.274 23.207,24.265C23.207,24.135 23.216,24.006 23.234,23.877C23.234,23.859 23.234,23.831 23.244,23.813C23.253,23.693 23.271,23.564 23.29,23.444C23.29,23.416 23.299,23.398 23.299,23.37C23.317,23.241 23.335,23.121 23.363,22.992C23.363,22.983 23.372,22.965 23.372,22.955C23.4,22.836 23.427,22.716 23.455,22.587C23.455,22.568 23.464,22.55 23.464,22.541C23.501,22.411 23.537,22.292 23.574,22.163C23.583,22.135 23.592,22.116 23.602,22.089C23.638,21.96 23.684,21.84 23.73,21.711C23.739,21.692 23.748,21.674 23.748,21.655C23.794,21.526 23.849,21.397 23.904,21.268C23.904,21.268 23.904,21.259 23.914,21.259C23.969,21.13 24.033,21.001 24.088,20.872C24.097,20.863 24.097,20.844 24.106,20.835L44.454,12.842Z" fill="#333333"/>
</svg>
