<svg width="12" height="8" viewBox="0 0 12 8" fill="none" xmlns="http://www.w3.org/2000/svg" xmlns:xlink="http://www.w3.org/1999/xlink">
<path d="M10.375,3.455L7.9,3.455L7.9,2.777C7.9,1.653 7.296,0.741 6.55,0.741L4.75,0.741C4.004,0.741 3.4,1.653 3.4,2.777L3.4,3.455L0.925,3.455C0.304,3.455 -0.2,4.214 -0.2,5.151L-0.2,6.508C-0.2,6.883 0.002,7.186 0.25,7.186L11.05,7.186C11.299,7.186 11.5,6.883 11.5,6.508L11.5,5.151C11.5,4.214 10.996,3.455 10.375,3.455ZM4.3,2.777C4.3,2.403 4.502,2.098 4.75,2.098L6.55,2.098C6.798,2.098 7,2.403 7,2.777L7,3.455L4.3,3.455L4.3,2.777Z" transform="rotate(0 5.65 3.964)" fill="#FFFFFF"/>
</svg>
