<svg width="12" height="16" viewBox="0 0 12 16" fill="none" xmlns="http://www.w3.org/2000/svg" xmlns:xlink="http://www.w3.org/1999/xlink">
<path d="M-0.211,-0.019C-0.294,-0.019 -0.36,0.089 -0.356,0.217L0.026,12.689C0.061,13.843 0.671,14.747 1.413,14.747L8.444,14.747C9.186,14.747 9.796,13.843 9.831,12.689L10.213,0.217C10.217,0.089 10.151,-0.019 10.068,-0.019L-0.211,-0.019ZM6.78,1.782C6.78,1.384 6.987,1.062 7.243,1.062C7.499,1.062 7.706,1.384 7.706,1.782L7.706,11.146C7.706,11.544 7.499,11.866 7.243,11.866C6.987,11.866 6.78,11.544 6.78,11.146L6.78,1.782ZM4.466,1.782C4.466,1.384 4.673,1.062 4.928,1.062C5.184,1.062 5.391,1.384 5.391,1.782L5.391,11.146C5.391,11.544 5.184,11.866 4.928,11.866C4.673,11.866 4.466,11.544 4.466,11.146L4.466,1.782ZM2.151,1.782C2.151,1.384 2.358,1.062 2.614,1.062C2.87,1.062 3.077,1.384 3.077,1.782L3.077,11.146C3.077,11.544 2.87,11.866 2.614,11.866C2.358,11.866 2.151,11.544 2.151,11.146L2.151,1.782Z" transform="rotate(0.318 4.928 7.364)" fill="#FFFFFF"/>
</svg>
