<svg width="12" height="8" viewBox="0 0 12 8" fill="none" xmlns="http://www.w3.org/2000/svg" xmlns:xlink="http://www.w3.org/1999/xlink">
<path d="M10.375,3.538L7.9,3.538L7.9,2.859C7.9,1.735 7.296,0.824 6.55,0.824L4.75,0.824C4.004,0.824 3.4,1.735 3.4,2.859L3.4,3.538L0.925,3.538C0.304,3.538 -0.2,4.297 -0.2,5.234L-0.2,6.591C-0.2,6.965 0.002,7.269 0.25,7.269L11.05,7.269C11.299,7.269 11.5,6.965 11.5,6.591L11.5,5.234C11.5,4.297 10.996,3.538 10.375,3.538ZM4.3,2.859C4.3,2.485 4.502,2.181 4.75,2.181L6.55,2.181C6.798,2.181 7,2.485 7,2.859L7,3.538L4.3,3.538L4.3,2.859Z" transform="rotate(0 5.65 4.047)" fill="#FFFFFF"/>
</svg>
