<svg width="14" height="8" viewBox="0 0 14 8" fill="none" xmlns="http://www.w3.org/2000/svg" xmlns:xlink="http://www.w3.org/1999/xlink">
<path d="M11.562,3.161L9.087,3.161L9.087,2.483C9.087,1.359 8.482,0.448 7.737,0.448L5.937,0.448C5.191,0.448 4.587,1.359 4.587,2.483L4.587,3.161L2.112,3.161C1.49,3.161 0.987,3.921 0.987,4.857L0.987,6.214C0.987,6.589 1.188,6.892 1.437,6.892L12.237,6.892C12.485,6.892 12.687,6.589 12.687,6.214L12.687,4.857C12.687,3.921 12.183,3.161 11.562,3.161ZM5.487,2.483C5.487,2.109 5.689,1.804 5.937,1.804L7.737,1.804C7.985,1.804 8.187,2.109 8.187,2.483L8.187,3.161L5.487,3.161L5.487,2.483Z" transform="rotate(0 6.837 3.67)" fill="#FFFFFF"/>
</svg>
