<svg width="12" height="16" viewBox="0 0 12 16" fill="none" xmlns="http://www.w3.org/2000/svg" xmlns:xlink="http://www.w3.org/1999/xlink">
<path d="M0.602,0.358C0.52,0.358 0.454,0.465 0.458,0.593L0.84,13.065C0.875,14.22 1.484,15.124 2.227,15.124L9.257,15.124C10,15.124 10.609,14.22 10.644,13.065L11.026,0.593C11.03,0.465 10.964,0.358 10.882,0.358L0.602,0.358ZM7.594,2.158C7.594,1.76 7.801,1.438 8.057,1.438C8.312,1.438 8.52,1.76 8.52,2.158L8.52,11.522C8.52,11.92 8.312,12.243 8.057,12.243C7.801,12.243 7.594,11.92 7.594,11.522L7.594,2.158ZM5.279,2.158C5.279,1.76 5.486,1.438 5.742,1.438C5.998,1.438 6.205,1.76 6.205,2.158L6.205,11.522C6.205,11.92 5.998,12.243 5.742,12.243C5.486,12.243 5.279,11.92 5.279,11.522L5.279,2.158ZM2.964,2.158C2.964,1.76 3.171,1.438 3.427,1.438C3.683,1.438 3.89,1.76 3.89,2.158L3.89,11.522C3.89,11.92 3.683,12.243 3.427,12.243C3.171,12.243 2.964,11.92 2.964,11.522L2.964,2.158Z" transform="rotate(0.318 5.742 7.741)" fill="#FFFFFF"/>
</svg>
