<svg width="12" height="16" viewBox="0 0 12 16" fill="none" xmlns="http://www.w3.org/2000/svg" xmlns:xlink="http://www.w3.org/1999/xlink">
<path d="M0.602,0.275C0.52,0.275 0.454,0.382 0.458,0.511L0.84,12.983C0.875,14.137 1.484,15.041 2.227,15.041L9.257,15.041C10,15.041 10.609,14.137 10.644,12.983L11.026,0.511C11.03,0.382 10.964,0.275 10.882,0.275L0.602,0.275ZM7.594,2.076C7.594,1.678 7.801,1.355 8.057,1.355C8.312,1.355 8.52,1.678 8.52,2.076L8.52,11.439C8.52,11.837 8.312,12.16 8.057,12.16C7.801,12.16 7.594,11.837 7.594,11.439L7.594,2.076ZM5.279,2.076C5.279,1.678 5.486,1.355 5.742,1.355C5.998,1.355 6.205,1.678 6.205,2.076L6.205,11.439C6.205,11.837 5.998,12.16 5.742,12.16C5.486,12.16 5.279,11.837 5.279,11.439L5.279,2.076ZM2.964,2.076C2.964,1.678 3.171,1.355 3.427,1.355C3.683,1.355 3.89,1.678 3.89,2.076L3.89,11.439C3.89,11.837 3.683,12.16 3.427,12.16C3.171,12.16 2.964,11.837 2.964,11.439L2.964,2.076Z" transform="rotate(0.318 5.742 7.658)" fill="#FFFFFF"/>
</svg>
