<svg width="48" height="48" viewBox="0 0 48 48" fill="none" xmlns="http://www.w3.org/2000/svg" xmlns:xlink="http://www.w3.org/1999/xlink">
<path d="M45.248,16.832C45.708,16.143 45.521,15.211 44.832,14.752C44.143,14.292 43.211,14.479 42.752,15.168L45.248,16.832ZM5.248,15.168C4.789,14.479 3.857,14.292 3.168,14.752C2.479,15.211 2.292,16.143 2.752,16.832L5.248,15.168ZM44,16C42.752,15.168 42.752,15.168 42.752,15.167C42.752,15.167 42.753,15.167 42.753,15.167C42.753,15.167 42.753,15.167 42.753,15.167C42.753,15.167 42.752,15.168 42.751,15.17C42.748,15.173 42.744,15.18 42.738,15.189C42.726,15.207 42.706,15.236 42.678,15.275C42.624,15.353 42.539,15.471 42.426,15.625C42.199,15.932 41.858,16.377 41.41,16.915C40.513,17.992 39.196,19.428 37.524,20.861C34.156,23.748 29.493,26.5 24,26.5L24,29.5C30.507,29.5 35.844,26.252 39.476,23.139C41.304,21.572 42.737,20.008 43.715,18.835C44.204,18.248 44.582,17.756 44.84,17.406C44.969,17.232 45.068,17.093 45.136,16.995C45.17,16.946 45.197,16.908 45.215,16.88C45.225,16.867 45.232,16.856 45.238,16.848C45.24,16.844 45.243,16.84 45.244,16.838C45.245,16.836 45.246,16.835 45.247,16.834C45.247,16.834 45.247,16.833 45.247,16.833C45.248,16.833 45.248,16.832 44,16ZM24,26.5C18.507,26.5 13.844,23.748 10.476,20.861C8.804,19.428 7.487,17.992 6.59,16.915C6.142,16.377 5.801,15.932 5.574,15.625C5.461,15.471 5.376,15.353 5.322,15.275C5.294,15.236 5.274,15.207 5.262,15.189C5.256,15.18 5.252,15.173 5.249,15.17C5.248,15.168 5.247,15.167 5.247,15.167C5.247,15.167 5.247,15.167 5.247,15.167C5.247,15.167 5.248,15.167 5.248,15.167C5.248,15.168 5.248,15.168 4,16C2.752,16.832 2.752,16.833 2.753,16.833C2.753,16.833 2.753,16.834 2.753,16.834C2.754,16.835 2.755,16.836 2.756,16.838C2.757,16.84 2.76,16.844 2.762,16.848C2.768,16.856 2.775,16.867 2.785,16.88C2.803,16.908 2.83,16.946 2.864,16.995C2.932,17.093 3.031,17.232 3.16,17.406C3.418,17.756 3.796,18.248 4.285,18.835C5.263,20.008 6.696,21.572 8.524,23.139C12.156,26.252 17.493,29.5 24,29.5L24,26.5Z" fill="#ABABAB"/>
<path d="M31.286,26.228C30.86,25.518 29.939,25.288 29.228,25.714C28.518,26.14 28.288,27.061 28.714,27.772L31.286,26.228ZM31.714,32.772C32.14,33.482 33.061,33.712 33.772,33.286C34.482,32.86 34.712,31.939 34.286,31.228L31.714,32.772ZM28.714,27.772L31.714,32.772L34.286,31.228L31.286,26.228L28.714,27.772Z" fill="#ABABAB"/>
<path d="M41.061,20.939C40.475,20.354 39.525,20.354 38.939,20.939C38.354,21.525 38.354,22.475 38.939,23.061L41.061,20.939ZM42.939,27.061C43.525,27.646 44.475,27.646 45.061,27.061C45.646,26.475 45.646,25.525 45.061,24.939L42.939,27.061ZM38.939,23.061L42.939,27.061L45.061,24.939L41.061,20.939L38.939,23.061Z" fill="#ABABAB"/>
<path d="M2.939,24.939C2.354,25.525 2.354,26.475 2.939,27.061C3.525,27.646 4.475,27.646 5.061,27.061L2.939,24.939ZM9.061,23.061C9.646,22.475 9.646,21.525 9.061,20.939C8.475,20.354 7.525,20.354 6.939,20.939L9.061,23.061ZM5.061,27.061L9.061,23.061L6.939,20.939L2.939,24.939L5.061,27.061Z" fill="#ABABAB"/>
<path d="M19.286,27.772C19.712,27.061 19.482,26.14 18.772,25.714C18.061,25.288 17.14,25.518 16.714,26.228L19.286,27.772ZM13.714,31.228C13.288,31.939 13.518,32.86 14.228,33.286C14.939,33.712 15.86,33.482 16.286,32.772L13.714,31.228ZM16.714,26.228L13.714,31.228L16.286,32.772L19.286,27.772L16.714,26.228Z" fill="#ABABAB"/>
</svg>
