<svg width="54" height="56" viewBox="0 0 54 56" fill="none" xmlns="http://www.w3.org/2000/svg" xmlns:xlink="http://www.w3.org/1999/xlink">
<path d="M18.542,1.513C11.833,3.811 6.111,8.839 2.933,15.178C1.823,17.368 1.021,19.697 0.543,22.103C-0.676,28.087 0.173,34.457 2.933,39.917C4.722,43.48 7.298,46.642 10.414,49.109C13.36,51.454 16.784,53.181 20.423,54.153C25.004,55.387 29.893,55.356 34.52,54.307C38.7,53.351 42.649,51.346 45.795,48.446C49.126,45.377 51.502,41.351 52.766,37.017C54.139,32.282 54.324,27.239 53.46,22.396C44.823,22.396 36.186,22.396 27.534,22.396C27.534,25.974 27.534,29.568 27.534,33.146C32.531,33.146 37.543,33.146 42.541,33.146C41.955,36.585 39.919,39.716 37.019,41.66C35.199,42.878 33.117,43.68 30.958,44.05C28.783,44.421 26.547,44.467 24.387,44.035C22.182,43.603 20.084,42.678 18.249,41.382C15.318,39.331 13.082,36.308 11.941,32.93C10.768,29.491 10.753,25.65 11.941,22.211C12.758,19.789 14.131,17.538 15.935,15.718C18.156,13.435 21.04,11.815 24.156,11.152C26.824,10.582 29.631,10.69 32.238,11.476C34.459,12.155 36.495,13.358 38.176,14.962C39.872,13.281 41.554,11.584 43.25,9.903C44.129,8.993 45.07,8.129 45.934,7.188C43.373,4.813 40.35,2.901 37.065,1.698C31.174,-0.508 24.495,-0.554 18.542,1.513Z" fill="#FFFFFF"/>
<path d="M18.542,1.513C24.495,-0.554 31.174,-0.508 37.096,1.682C40.382,2.885 43.389,4.798 45.965,7.173C45.101,8.098 44.176,8.977 43.281,9.887C41.585,11.569 39.903,13.265 38.207,14.946C36.526,13.342 34.49,12.124 32.269,11.461C29.662,10.674 26.855,10.566 24.187,11.137C21.071,11.8 18.187,13.435 15.966,15.702C14.162,17.522 12.789,19.774 11.972,22.195C8.964,19.866 5.957,17.522 2.949,15.193C6.111,8.839 11.833,3.811 18.542,1.513Z" fill="#E94435"/>
<path d="M0.543,22.103C1.021,19.697 1.838,17.368 2.933,15.178C5.941,17.507 8.948,19.851 11.956,22.18C10.768,25.619 10.784,29.46 11.956,32.899C8.948,35.228 5.941,37.572 2.933,39.901C0.173,34.472 -0.676,28.087 0.543,22.103Z" fill="#F8BB15"/>
<path d="M27.549,22.38C36.186,22.38 44.823,22.38 53.476,22.38C54.339,27.223 54.154,32.267 52.782,37.002C51.517,41.336 49.142,45.377 45.81,48.43C42.895,46.163 39.965,43.896 37.065,41.629C39.965,39.701 42.001,36.554 42.587,33.115C37.59,33.115 32.577,33.115 27.58,33.115C27.534,29.552 27.549,25.974 27.549,22.38Z" fill="#547DBE"/>
<path d="M2.933,39.917C5.941,37.588 8.948,35.243 11.956,32.914C13.097,36.308 15.334,39.315 18.264,41.366C20.1,42.662 22.197,43.572 24.403,44.019C26.562,44.451 28.814,44.405 30.973,44.035C33.132,43.665 35.215,42.863 37.034,41.644C39.949,43.911 42.88,46.179 45.78,48.446C42.633,51.361 38.685,53.35 34.505,54.307C29.893,55.355 25.004,55.386 20.408,54.152C16.768,53.181 13.344,51.453 10.398,49.109C7.298,46.626 4.722,43.464 2.933,39.917Z" fill="#34A751"/>
</svg>
